<svg width="178" height="60" viewBox="0 0 178 60" fill="none" xmlns="http://www.w3.org/2000/svg">
<path d="M33.936 28.328C38.544 31.784 42.3413 34.0453 45.328 35.112C49.04 36.4773 51.3227 37.6933 52.176 38.76C53.072 39.8267 53.52 40.6373 53.52 41.192C53.52 41.704 53.0293 41.96 52.048 41.96C50.384 41.96 48.08 41.4053 45.136 40.296C42.192 39.144 39.824 37.5867 38.032 35.624C35.6 32.936 32.8693 31.08 29.84 30.056C29.712 30.2267 29.648 30.4613 29.648 30.76C29.648 31.016 29.776 31.272 30.032 31.528C30.928 31.5707 31.6533 32.0187 32.208 32.872C32.7627 33.6827 33.04 34.6 33.04 35.624C33.04 35.9227 33.0187 36.2213 32.976 36.52C33.744 37.6293 34.128 38.568 34.128 39.336C34.128 40.232 33.9147 40.8293 33.488 41.128C33.0613 41.384 32.7413 41.7467 32.528 42.216C34.2347 42.6853 35.344 43.2187 35.856 43.816C36.4107 44.4133 36.688 45.1173 36.688 45.928C36.688 46.696 36.3893 47.2933 35.792 47.72C35.2373 48.104 34.576 48.872 33.808 50.024C32.1867 52.4133 29.7973 54.6533 26.64 56.744C23.4827 58.8773 21.1573 59.944 19.664 59.944C19.3227 59.944 18.8747 59.9013 18.32 59.816C17.808 59.7307 17.552 59.6027 17.552 59.432C17.552 59.304 17.8293 59.0907 18.384 58.792C20.176 57.8107 21.7547 56.6587 23.12 55.336C24.4853 54.0133 25.936 52.2853 27.472 50.152C29.008 48.0613 29.904 46.824 30.16 46.44C30.416 46.0133 30.544 45.672 30.544 45.416C30.544 45.16 30.3947 44.9253 30.096 44.712C28.7307 45.9067 27.344 46.952 25.936 47.848C24.528 48.7013 23.696 49.128 23.44 49.128C23.056 49.128 22.864 48.5093 22.864 47.272C22.864 46.0347 23.248 45.096 24.016 44.456C24.784 43.816 25.936 43.112 27.472 42.344C28.368 41.3627 28.816 40.488 28.816 39.72C28.816 39.4213 28.7307 39.1653 28.56 38.952C27.3227 39.976 26.1707 40.7867 25.104 41.384C24.08 41.9813 23.4187 42.28 23.12 42.28C22.8213 42.28 22.5867 41.96 22.416 41.32C22.2453 40.6373 22.16 40.1253 22.16 39.784C22.16 39.4 22.3307 38.8453 22.672 38.12C23.056 37.352 23.44 36.904 23.824 36.776C24.8053 36.392 25.5733 35.8587 26.128 35.176C26.6827 34.4933 26.96 33.8107 26.96 33.128C26.96 32.4453 26.768 31.784 26.384 31.144C22.672 35.4533 19.28 38.7813 16.208 41.128C13.136 43.4747 10.8747 44.648 9.424 44.648C8.99733 44.648 8.57067 44.52 8.144 44.264C7.76 44.008 7.568 43.7733 7.568 43.56C7.568 43.3467 8.016 43.1333 8.912 42.92C9.85067 42.664 11.1733 41.832 12.88 40.424C14.5867 38.9733 17.424 36.1147 21.392 31.848C20.1547 31.0373 19.024 30.0987 18 29.032C16.464 30.8667 15.4187 31.784 14.864 31.784C14.5227 31.784 14.1813 31.272 13.84 30.248C13.4987 29.224 13.328 28.4133 13.328 27.816C13.328 25.8107 14.032 24.7227 15.44 24.552C17.5307 24.296 19.2587 23.72 20.624 22.824C21.9893 21.8853 22.672 21.0107 22.672 20.2C22.672 19.7307 22.5013 19.496 22.16 19.496C21.8613 19.496 21.6053 19.6667 21.392 20.008C20.9653 20.6907 19.088 21.1173 15.76 21.288C14.992 22.1413 14.0107 23.8693 12.816 26.472C11.6213 29.032 9.59467 34.088 6.736 41.64C5.584 44.6693 4.45333 47.0373 3.344 48.744C2.23467 50.408 1.488 51.24 1.104 51.24C0.72 51.24 0.442667 50.7067 0.272 49.64C0.101334 48.5733 0.0160003 47.8693 0.0160003 47.528C0.0160003 46.376 0.528 44.6907 1.552 42.472C2.61867 40.2107 4.368 37.4373 6.8 34.152C9.744 25.4907 12.2827 18.6853 14.416 13.736C13.6907 13.5227 12.6027 12.8613 11.152 11.752C9.744 10.6427 9.04 9.96 9.04 9.704C9.04 9.448 9.552 9.32 10.576 9.32C13.2213 9.27733 15.824 9 18.384 8.488C20.9867 7.976 23.0773 7.31466 24.656 6.504C22.5653 3.048 21.52 1.14933 21.52 0.807999C21.52 0.594666 21.968 0.487999 22.864 0.487999C24.8267 0.487999 26.4267 0.743998 27.664 1.256C28.9013 1.72533 30.3307 2.792 31.952 4.456C32.464 4.28533 33.0827 4.2 33.808 4.2C34.5333 4.2 35.3867 4.52 36.368 5.16C37.3493 5.8 37.84 6.46133 37.84 7.144C37.84 7.784 37.5413 8.36 36.944 8.872C36.3467 9.34133 35.5147 9.576 34.448 9.576C33.3813 9.576 31.248 10.1093 28.048 11.176C24.8907 12.2427 22.032 13.0533 19.472 13.608C18.4907 14.8027 17.4453 16.9787 16.336 20.136C19.4507 17.0213 21.4773 15.1013 22.416 14.376C23.3547 13.6507 24.336 13.288 25.36 13.288C25.9147 13.288 26.4053 13.544 26.832 14.056C27.2587 14.5253 27.8987 15.5493 28.752 17.128C29.6907 15.976 31.0773 14.9733 32.912 14.12C34.7467 13.224 36.1547 12.776 37.136 12.776C38.16 12.776 39.1413 13.2453 40.08 14.184C41.0187 15.08 41.488 16.104 41.488 17.256C41.488 17.6827 41.2747 18.3867 40.848 19.368C40.464 20.3493 39.9733 21.4373 39.376 22.632C38.7787 23.784 38.224 24.7013 37.712 25.384C37.2 26.024 36.6667 26.5573 36.112 26.984C35.5573 27.368 34.832 27.816 33.936 28.328ZM31.504 25.448C33.68 24.5947 35.216 23.3573 36.112 21.736C37.0507 20.072 37.52 18.664 37.52 17.512C37.52 16.9147 37.3493 16.424 37.008 16.04C36.6667 15.656 36.0693 15.464 35.216 15.464C34.4053 15.464 33.488 15.72 32.464 16.232C31.44 16.744 30.1173 18.1093 28.496 20.328C29.1787 20.2427 29.776 20.2 30.288 20.2C32.4213 20.2 33.488 20.84 33.488 22.12C33.488 22.8453 32.8267 23.9547 31.504 25.448ZM27.6 22.248C27.2587 22.8453 27.088 23.4 27.088 23.912C27.088 24.3813 27.152 24.7867 27.28 25.128C28.2187 23.976 28.688 23.2293 28.688 22.888C28.688 22.504 28.3253 22.2907 27.6 22.248ZM26.896 25.576C26.4693 24.552 26.2133 23.848 26.128 23.464C25.488 24.5733 25.168 25.448 25.168 26.088C25.168 26.6853 25.2747 27.0693 25.488 27.24C26.0853 26.6427 26.5547 26.088 26.896 25.576ZM6.224 35.432C3.792 38.6747 2.576 40.9787 2.576 42.344C2.576 42.8133 2.68267 43.176 2.896 43.432C4.26133 40.616 5.37067 37.9493 6.224 35.432ZM100.688 10.088C104.571 9.53333 107.003 9.256 107.984 9.256C108.965 9.256 109.925 9.78933 110.864 10.856C111.803 11.88 112.272 12.6267 112.272 13.096C112.272 13.5653 112.123 13.864 111.824 13.992C111.568 14.12 111.035 14.184 110.224 14.184C108.731 14.184 106.704 14.8027 104.144 16.04C103.547 16.3387 102.288 16.6373 100.368 16.936C98.4907 17.2347 97.1253 17.384 96.272 17.384C94.9067 20.328 93.84 22.5253 93.072 23.976C95.8027 21.16 98.0853 19.752 99.92 19.752C101.285 19.752 102.651 20.52 104.016 22.056C105.381 23.592 106.064 25.128 106.064 26.664C106.064 27.0907 106 27.5813 105.872 28.136C105.787 28.6907 105.744 29.7787 105.744 31.4L106.064 45.288C106.064 50.0667 105.659 53.5013 104.848 55.592C104.037 57.6827 103.376 58.728 102.864 58.728C102.352 58.728 100.859 56.9573 98.384 53.416C95.952 49.9173 93.9467 45.3947 92.368 39.848C92.24 40.7867 92.176 41.768 92.176 42.792V45.288C92.176 46.568 92.0053 48.1467 91.664 50.024C91.3227 51.944 91.0667 53.0747 90.896 53.416C90.7253 53.8 90.5547 53.992 90.384 53.992C89.9573 53.992 89.4667 53.1387 88.912 51.432C88.3573 49.768 88.08 48.3813 88.08 47.272C88.08 46.12 88.144 45.1173 88.272 44.264C89.1253 38.76 89.552 34.6427 89.552 31.912C89.552 31.144 89.5093 30.6533 89.424 30.44C87.8453 32.9573 85.84 34.216 83.408 34.216C81.6587 34.216 80.144 33.4693 78.864 31.976C76.3467 38.9307 74.8533 43.24 74.384 44.904C73.9573 46.568 73.744 47.912 73.744 48.936C73.744 49.9173 73.8507 50.6 74.064 50.984C74.2773 51.4107 74.384 51.7947 74.384 52.136C74.384 52.8613 74.064 53.224 73.424 53.224C72.3573 53.224 71.12 52.1787 69.712 50.088C68.304 47.9973 67.6 44.968 67.6 41C67.6 38.7813 67.792 36.5627 68.176 34.344C68.6027 32.1253 68.816 30.5467 68.816 29.608C68.816 28.6267 68.496 28.0507 67.856 27.88C67.2587 27.7093 66.5547 26.8133 65.744 25.192C64.9333 23.5707 64.528 21.8213 64.528 19.944C64.528 18.6213 64.784 17.96 65.296 17.96C65.808 17.96 67.216 19.4533 69.52 22.44C71.8667 25.4267 73.04 27.432 73.04 28.456C73.04 28.8827 72.72 30.12 72.08 32.168C71.44 34.216 70.928 35.6027 70.544 36.328C70.2027 37.0533 69.776 37.544 69.264 37.8C68.7947 38.056 68.56 38.76 68.56 39.912C68.56 41.0213 68.752 42.0453 69.136 42.984C69.52 43.9227 69.7973 44.392 69.968 44.392C70.1813 44.392 70.416 44.1787 70.672 43.752C70.9707 43.3253 71.824 41.6187 73.232 38.632C74.6827 35.6453 76.0693 32.7013 77.392 29.8C77.3493 29.7147 77.328 29.5867 77.328 29.416C77.328 29.2453 77.4773 29.1813 77.776 29.224C78.928 27.0053 79.696 25.896 80.08 25.896C80.208 25.896 80.272 26.1093 80.272 26.536C80.272 26.9627 80.016 27.9867 79.504 29.608C80.2293 29.7787 80.912 29.864 81.552 29.864C82.192 29.864 82.8533 29.5227 83.536 28.84C84.2613 28.1147 85.0933 27.0693 86.032 25.704C85.8187 25.4907 85.712 25.2773 85.712 25.064C85.712 24.552 86.096 24.3173 86.864 24.36C88.656 21.6293 90.1707 18.9413 91.408 16.296C89.4027 16.808 84.9013 19.176 77.904 23.4C77.3067 23.7413 76.7733 23.912 76.304 23.912C75.8773 23.912 75.1947 23.2933 74.256 22.056C73.3173 20.8187 72.848 20.0293 72.848 19.688C72.848 19.304 73.0827 18.984 73.552 18.728C74.064 18.4293 76.8587 17.384 81.936 15.592C87.0133 13.7573 90.7467 12.4773 93.136 11.752C93.648 10.1733 93.904 9.08533 93.904 8.488C93.904 7.848 93.648 7.336 93.136 6.952C91.4293 5.8 90.576 4.904 90.576 4.264C90.576 3.58133 91.1733 3.24 92.368 3.24C94.672 3.24 96.656 3.88 98.32 5.16C100.027 6.39733 100.88 7.72 100.88 9.128C100.88 9.46933 100.816 9.78933 100.688 10.088ZM98 14.056L96.784 16.168C99.9413 14.8027 101.52 13.9493 101.52 13.608C101.52 13.5227 101.392 13.48 101.136 13.48C100.624 13.48 99.5787 13.672 98 14.056ZM101.456 40.04C101.157 30.312 100.965 25.2133 100.88 24.744C100.795 24.2747 100.603 24.04 100.304 24.04C100.005 24.04 99.2587 24.5947 98.064 25.704C97.7227 26.0027 97.2747 26.152 96.72 26.152C96.1653 26.152 94.736 25.832 92.432 25.192L91.984 26.024C92.7093 26.8773 93.072 28.456 93.072 30.76C94.4373 29.48 95.5893 28.84 96.528 28.84C97.5093 28.84 98.384 29.224 99.152 29.992C99.92 30.76 100.304 31.6133 100.304 32.552C100.304 33.4907 99.9627 34.4293 99.28 35.368C98.64 36.3067 98.32 36.9253 98.32 37.224C98.32 37.48 98.4693 37.6933 98.768 37.864C99.664 38.2907 100.56 39.016 101.456 40.04ZM101.456 43.304C99.28 43.048 97.552 42.472 96.272 41.576C94.992 40.68 94.352 39.656 94.352 38.504C94.352 37.9067 94.5013 37.3307 94.8 36.776C95.1413 36.1787 95.312 35.7733 95.312 35.56C95.312 35.304 95.0773 35.176 94.608 35.176C94.1387 35.176 93.5627 35.0907 92.88 34.92C92.88 35.4747 92.7947 36.584 92.624 38.248C93.4347 40.808 94.8427 43.2187 96.848 45.48C98.896 47.6987 100.155 48.808 100.624 48.808C100.88 48.808 101.051 48.424 101.136 47.656C101.264 46.888 101.371 45.4373 101.456 43.304ZM70.288 3.496C70.8 3.496 72.144 3.944 74.32 4.84C76.5387 5.736 78.2667 6.97333 79.504 8.552C80.784 10.088 81.424 11.2187 81.424 11.944C81.424 12.6267 81.1893 13.1813 80.72 13.608C80.2507 13.992 79.1627 14.3547 77.456 14.696C75.7493 15.0373 74.64 15.208 74.128 15.208C73.6587 15.208 73.232 15.016 72.848 14.632C72.5067 14.2053 72.336 13.7573 72.336 13.288C72.336 12.776 72.4853 12.3493 72.784 12.008C73.1253 11.6667 73.296 11.2827 73.296 10.856C73.296 10.5147 72.848 9.49066 71.952 7.784C70.6293 5.26667 69.968 3.92267 69.968 3.752C69.968 3.58133 70.0747 3.496 70.288 3.496ZM156.56 25.128C159.803 24.616 162.213 24.36 163.792 24.36C164.517 24.36 165.072 24.552 165.456 24.936C165.883 25.32 166.352 25.6187 166.864 25.832C167.376 26.0027 167.803 26.3653 168.144 26.92C168.485 27.432 168.656 28.0293 168.656 28.712C168.656 29.3947 168.464 29.9707 168.08 30.44C167.739 30.9093 166.352 31.8267 163.92 33.192C161.488 34.5573 158.693 35.9013 155.536 37.224C155.493 38.12 155.344 38.9947 155.088 39.848C154.875 40.7013 154.683 41.192 154.512 41.32C154.384 41.448 154.128 41.512 153.744 41.512C153.403 41.512 152.933 41.2773 152.336 40.808C151.781 40.3387 151.376 39.72 151.12 38.952C145.787 40.616 142.757 41.448 142.032 41.448C141.349 41.448 140.859 41.384 140.56 41.256C140.304 41.128 140.176 41 140.176 40.872C140.176 40.744 140.325 40.6373 140.624 40.552C143.184 39.7413 146.427 38.3547 150.352 36.392C150.096 35.2827 150.011 33.6827 150.096 31.592C147.323 33.896 145.488 35.176 144.592 35.432C143.525 35.6453 142.565 36.072 141.712 36.712C140.901 37.3093 140.261 37.608 139.792 37.608C139.024 37.608 138.64 36.8187 138.64 35.24C138.64 32.936 139.216 31.5067 140.368 30.952C142.075 30.184 143.995 28.968 146.128 27.304C148.261 25.5973 149.648 24.0827 150.288 22.76C148.027 24.3387 146.363 25.3627 145.296 25.832C144.229 26.2587 143.056 26.472 141.776 26.472C140.539 26.472 139.536 26.3227 138.768 26.024C138 25.6827 137.189 25.192 136.336 24.552C135.525 23.8693 134.608 22.9947 133.584 21.928C132.603 20.8187 132.005 20.0933 131.792 19.752C131.621 19.4107 131.536 19.0907 131.536 18.792C131.536 18.4507 131.728 18.28 132.112 18.28C132.496 18.28 132.965 18.472 133.52 18.856C134.075 19.24 134.821 19.432 135.76 19.432C136.699 19.432 137.701 19.3467 138.768 19.176C139.835 19.0053 141.883 18.1307 144.912 16.552C147.984 14.9307 150.267 13.672 151.76 12.776C151.931 11.3253 152.016 10.088 152.016 9.064C152.016 8.04 151.675 7.37867 150.992 7.08C148.731 6.056 147.6 5.16 147.6 4.392C147.6 4.136 147.771 3.944 148.112 3.816C148.453 3.688 149.477 3.624 151.184 3.624C154.427 3.624 156.667 4.02933 157.904 4.84C159.141 5.65067 159.888 6.39733 160.144 7.08C160.4 7.72 160.507 8.59466 160.464 9.704C164.603 9.61866 166.672 10.5147 166.672 12.392C166.672 13.0747 166.437 13.8213 165.968 14.632C165.499 15.4 164.496 15.8267 162.96 15.912C161.467 15.9973 160.613 16.1253 160.4 16.296C160.229 18.728 159.696 20.392 158.8 21.288C157.947 22.184 157.2 23.464 156.56 25.128ZM155.216 33.32L160.528 29.736C160.869 29.5227 161.04 29.3307 161.04 29.16C161.04 28.9467 160.891 28.84 160.592 28.84C157.563 28.84 155.813 29.288 155.344 30.184C155.173 31.1653 155.131 32.2107 155.216 33.32ZM140.944 46.952C140.944 47.464 140.731 47.912 140.304 48.296C139.92 48.68 139.173 49.0853 138.064 49.512C136.955 49.9813 136.08 50.3867 135.44 50.728C134.843 51.112 134.224 51.304 133.584 51.304C132.944 51.304 131.984 50.6427 130.704 49.32C129.424 47.9973 128.784 46.8453 128.784 45.864C128.784 44.8827 129.019 44.392 129.488 44.392C129.701 44.392 130.021 44.584 130.448 44.968C130.875 45.3093 131.216 45.5653 131.472 45.736C131.771 45.9067 132.261 45.992 132.944 45.992C133.669 45.992 134.715 45.7787 136.08 45.352C137.445 44.8827 139.557 44.008 142.416 42.728C143.483 42.2587 144.613 42.024 145.808 42.024C147.216 42.024 148.453 42.28 149.52 42.792C150.587 43.304 151.568 43.56 152.464 43.56C153.403 43.56 154.981 43.2613 157.2 42.664C159.419 42.024 161.915 41.4907 164.688 41.064C167.461 40.6373 169.573 40.424 171.024 40.424C173.413 40.424 175.12 41.0213 176.144 42.216C177.211 43.4107 177.744 44.776 177.744 46.312C177.744 48.9147 176.037 50.216 172.624 50.216C171.813 50.216 171.045 50.1093 170.32 49.896C166.992 49 164.24 48.4027 162.064 48.104C161.125 47.976 160.656 47.6773 160.656 47.208C160.656 46.9947 160.72 46.8453 160.848 46.76C161.019 46.6747 161.317 46.632 161.744 46.632C163.28 46.632 165.221 46.2693 167.568 45.544C169.957 44.8187 171.152 44.264 171.152 43.88C171.152 43.6667 170.853 43.496 170.256 43.368C169.659 43.1973 168.933 43.112 168.08 43.112C167.269 43.112 165.861 43.432 163.856 44.072L158.288 45.864C156.197 46.5467 154.768 46.9733 154 47.144C153.232 47.3147 152.528 47.4 151.888 47.4C150.437 47.4 149.072 46.76 147.792 45.48C147.067 44.7547 146.469 44.392 146 44.392C145.531 44.392 144.976 44.6053 144.336 45.032C143.739 45.416 142.608 46.056 140.944 46.952Z" fill="#8E7E74"/>
</svg>
