<?xml version="1.0" encoding="utf-8"?>
<!-- Generator: Adobe Illustrator 25.0.0, SVG Export Plug-In . SVG Version: 6.00 Build 0)  -->
<svg version="1.1" id="Layer_1" xmlns="http://www.w3.org/2000/svg" xmlns:xlink="http://www.w3.org/1999/xlink" x="0px" y="0px"
	 viewBox="0 0 1266.5 502.4" style="enable-background:new 0 0 1266.5 502.4;" xml:space="preserve">
<style type="text/css">
	.st0{fill:#F4A887;}
</style>
<path class="st0" d="M1255.8,481H416.3c13.5-8.2,26-18,37.2-29.3c23.8-24.1,40.8-54,49.3-86.7c8.5-32.7,8.2-67.2-0.9-99.7
	c-9.1-32.6-26.6-62.2-50.9-85.8c-10.3-10.1-21.7-18.9-34-26.4c-0.8-1.4-1.8-2.7-3.2-3.6c-7.7-5.3-14.2-12.1-19.2-19.9
	c-5-7.8-8.5-16.6-10.2-25.7c-1.7-9.2-1.5-18.6,0.5-27.7c2-9.1,5.7-17.7,11-25.4c5.3-7.7,12.1-14.2,19.9-19.2
	c7.8-5,16.6-8.5,25.7-10.2c9.2-1.7,18.6-1.5,27.7,0.5c9.1,2,17.7,5.7,25.4,11c11,7.6,19.7,18.3,24.9,30.6
	c5.2,12.4,6.9,25.9,4.7,39.2L513.2,95l-1-0.6c-2.3-1.2-4.9-1.5-7.4-0.8c-2.5,0.7-4.6,2.3-6,4.5c-1.3,2.2-1.8,4.8-1.3,7.4
	c0.5,2.5,2,4.8,4.1,6.2l33.3,23.1l1,0.6c2.2,1.2,4.7,1.5,7.1,0.9c2.4-0.6,4.5-2,5.9-4.1l23.1-33.3l0.6-1c1.2-2.3,1.5-4.9,0.8-7.4
	c-0.7-2.5-2.3-4.6-4.5-6c-2.2-1.3-4.8-1.8-7.4-1.3c-2.5,0.5-4.8,2-6.2,4.1L544.7,103c2.2-16.6-0.3-33.5-7.1-48.8
	c-6.8-15.3-17.7-28.4-31.4-38C486.3,2.4,461.7-2.9,437.9,1.5c-23.8,4.3-44.9,17.9-58.7,37.8c-13.8,19.9-19.1,44.4-14.7,68.2
	c1.7,9.1,4.7,17.9,8.9,26c-3.1-1-6.3-1.9-9.5-2.7c-32.8-8.3-67.2-7.7-99.7,1.6c-32.5,9.3-62,27.1-85.5,51.4
	c-23.5,24.4-40.1,54.5-48.1,87.4l-10.2-37.6c-0.8-3.1-2.9-5.7-5.6-7.3c-2.8-1.6-6-2-9.1-1.2c-3.1,0.8-5.7,2.9-7.3,5.6
	c-1.6,2.8-2,6-1.2,9.1l18.9,69.4c0.8,3.1,2.9,5.7,5.6,7.3c2.8,1.6,6,2,9.1,1.2l69.4-18.9c3.1-0.8,5.7-2.9,7.3-5.6
	c1.6-2.8,2-6,1.2-9.1c-0.8-3.1-2.9-5.7-5.6-7.3c-2.8-1.6-6-2-9.1-1.2l-42.3,11.5c5.3-29.6,18.5-57.2,38.1-80
	c19.6-22.8,45-39.8,73.4-49.5s59-11.4,88.4-5.2c29.4,6.2,56.6,20.2,78.8,40.5c22.2,20.3,38.5,46.2,47.2,74.9
	c8.8,28.7,9.6,59.3,2.6,88.5c-7.1,29.2-21.9,56-42.8,77.5c-21,21.5-47.3,37.1-76.3,44.9c-1.6,0.4-3,1.2-4.3,2.1H10.7
	C4.8,481,0,485.8,0,491.7s4.8,10.7,10.7,10.7h1245.1c5.9,0,10.7-4.8,10.7-10.7S1261.7,481,1255.8,481z"/>
</svg>
